<svg width="1742" height="1697" xmlns="http://www.w3.org/2000/svg" xmlns:xlink="http://www.w3.org/1999/xlink" xml:space="preserve" overflow="hidden"><defs><clipPath id="clip0"><rect x="1333" y="399" width="1742" height="1697"/></clipPath></defs><g clip-path="url(#clip0)" transform="translate(-1333 -399)"><path d="M1335.83 1163.26C1305.2 919.129 1530.11 620.922 1684.01 628.129 1837.9 635.335 2228.56 962.364 2259.18 1206.5 2289.81 1450.63 2064.9 2083.91 1867.77 2092.91 1670.64 2101.92 1366.45 1407.39 1335.83 1163.26ZM1375.14 1163.26C1402.16 1374.47 1690.95 1989.66 1819.12 2004.97 1947.3 2020.28 2090.16 1760.73 2144.21 1384.84 2144.21 1003.55 1785.16 774.622 1656.98 737.691 1528.8 700.761 1348.11 952.047 1375.14 1163.26Z" fill-rule="evenodd"/><path d="M2.82833 535.26C-27.7981 291.128 197.115-7.07767 351.007 0.128515 504.899 7.3347 895.557 334.364 926.183 578.495 956.81 822.626 731.897 1455.91 534.767 1464.91 337.637 1473.92 33.4548 779.391 2.82833 535.26ZM42.1355 535.26C69.1591 746.472 357.945 1361.66 486.125 1376.97 614.304 1392.28 757.163 1132.73 811.21 756.841 811.21 375.551 452.163 146.622 323.983 109.691 195.804 72.7606 15.1119 324.047 42.1355 535.26Z" fill-rule="evenodd" transform="matrix(-1 0 0 1 3075 631)"/><path d="M1919.58 413.197C2078.46 448.819 2200.71 770.879 2202.97 1159.74" stroke="#000000" stroke-width="27.5" stroke-miterlimit="8" fill="none" fill-rule="evenodd"/><path d="M340.078 3.20701C498.687 38.8819 620.722 360.932 622.971 749.761" stroke="#000000" stroke-width="27.5" stroke-miterlimit="8" fill="none" fill-rule="evenodd" transform="matrix(-1 0 0 1 2829 410)"/><path d="M1870.61 416.309C1893.07 389.561 1943.49 394.927 1983.22 428.295 2022.96 461.662 2036.96 510.395 2014.49 537.143 1992.03 563.891 1941.61 558.525 1901.88 525.157 1862.15 491.79 1848.15 443.057 1870.61 416.309Z" fill-rule="evenodd"/><path d="M0 63.2442C-1.19607e-14 28.3154 42.0613-8.05183e-15 93.9466-1.61037e-14 145.832-3.22073e-14 187.893 28.3154 187.893 63.2442 187.893 98.173 145.832 126.488 93.9466 126.488 42.0613 126.488-5.98033e-14 98.173 0 63.2442Z" fill-rule="evenodd" transform="matrix(-0.765782 0.6431 0.6431 0.765782 2497.37 367.878)"/><path d="M1945 778C2121.02 965.577 2286.42 975.527 2458 784.289 2268.35 1067.65 2254.7 1507.66 2313.18 1844 2243.72 1606.29 2161.63 1611.95 2097.39 1844 2153.59 1511.97 2146.81 1057.9 1945 778Z" fill-rule="evenodd"/></g></svg>